<?xml version="1.0" encoding="UTF-8"?><svg id="Layer_1" xmlns="http://www.w3.org/2000/svg" viewBox="0 0 131.49 42.38"><defs><style>.cls-1{fill:#231f20;}</style></defs><path class="cls-1" d="M11.26,24l-1.57,3.67h-3.77L15.63,5.3h1.2l9.7,22.37h-3.8l-1.57-3.67-1.27-3.03-3.67-9.1-3.7,9.1-1.27,3.03Z"/><path class="cls-1" d="M118.96,20.97l-3.7-9.1-3.67,9.1-1.27,3.03-1.57,3.67h-3.8s9.7-22.37,9.7-22.37h1.2s9.7,22.37,9.7,22.37h-3.77s-1.57-3.67-1.57-3.67l-1.27-3.03Z"/><path class="cls-1" d="M42.03,5.3c3.83,0,7,1.67,9.1,4.6l-2.57,2.1c-1.63-2.3-3.84-3.47-6.57-3.47-4.63,0-7.9,3.47-7.9,8.1s3.36,8.23,8.1,8.23c2.9,0,5.2-1.23,6.57-3.33v-2.37h-1.68v-3.13h5.21v6.2c-1.97,3.5-5.84,5.8-10.27,5.8-6.43,.1-11.7-5.07-11.6-11.37-.13-6.3,5.24-11.47,11.6-11.37Z"/><path class="cls-1" d="M67.73,5.3c6.24-.1,11.7,5.07,11.57,11.37,.13,6.3-5.34,11.47-11.57,11.37-6.3,.1-11.67-5.07-11.54-11.37-.1-6.3,5.27-11.47,11.54-11.37Zm.04,3.23c-4.57,0-7.9,3.47-7.9,8.1s3.33,8.17,7.9,8.17,7.9-3.47,7.9-8.17-3.4-8.1-7.9-8.1Z"/><path class="cls-1" d="M97.03,27.67l-6.27-8.5h-4.03v8.5h-3.53V5.66h8.04c4.43,0,7.47,2.77,7.47,6.74,0,2.9-1.6,5.17-4.24,6.2l6.6,9.07h-4.03Zm-10.3-11.64h4.44c2.43,0,3.9-1.47,3.9-3.6s-1.47-3.63-3.9-3.63h-4.44v7.24Z"/><g><path class="cls-1" d="M56.98,28.9c.06-.02,.11-.03,.14-.02,.03,0,.09,.02,.17,.05,.14,.05,.26,.13,.36,.23,.1,.1,.13,.19,.11,.27-.01,.02-.06,.13-.15,.32-.09,.19-.2,.42-.32,.67s-.23,.47-.31,.64-.16,.33-.23,.47-.13,.28-.18,.4c-.05,.13-.11,.27-.17,.43-.06,.15-.12,.3-.17,.45s-.1,.28-.14,.4c-.04,.12-.07,.21-.08,.29-.01,.08-.01,.11,0,.11,.01,0,.1-.08,.26-.24,.16-.16,.35-.35,.58-.58,.23-.23,.46-.46,.69-.68,.23-.22,.39-.38,.49-.47,.2-.18,.43-.37,.68-.57s.5-.39,.77-.59c.26-.2,.53-.39,.79-.57,.26-.18,.51-.34,.74-.49,.15-.09,.26-.14,.34-.16,.07-.02,.16,0,.26,.04,.24,.11,.36,.26,.36,.46,0,.12-.08,.32-.24,.61s-.42,.7-.8,1.24c-.23,.34-.46,.7-.68,1.06-.22,.36-.45,.74-.68,1.13-.83,1.42-1.28,2.43-1.35,3.04-.01,.04-.02,.08-.02,.11,0,.04-.02,.06-.04,.07-.06,.08-.18,.1-.35,.05-.17-.05-.26-.16-.26-.33-.01-.08-.01-.17,0-.28,0-.11,.03-.2,.04-.27,.06-.25,.15-.52,.27-.81,.12-.28,.3-.66,.54-1.14,.14-.29,.3-.61,.48-.93,.18-.33,.35-.65,.53-.97s.35-.62,.52-.89c.17-.27,.31-.5,.43-.68,.08-.12,.16-.24,.23-.34,.07-.11,.12-.17,.14-.19l.06-.08-.08,.03s-.09,.06-.19,.13c-.1,.07-.21,.14-.34,.22-.13,.08-.25,.17-.38,.26-.13,.09-.23,.17-.31,.23-.18,.13-.35,.26-.5,.39-.15,.13-.31,.26-.48,.41s-.34,.31-.52,.49-.4,.39-.64,.63c-.28,.28-.51,.51-.67,.67-.16,.16-.29,.28-.39,.36-.1,.08-.17,.12-.23,.14-.05,.02-.11,.03-.17,.03-.07,0-.15-.02-.24-.07-.09-.05-.15-.09-.19-.14-.04-.05-.06-.16-.05-.32,0-.16,.03-.34,.08-.55,.02-.08,.06-.22,.11-.4s.12-.38,.18-.59c.07-.2,.13-.39,.18-.56,.05-.17,.1-.29,.13-.35,.02-.04,.04-.09,.06-.14,.02-.05,.04-.1,.06-.15,.02-.05,.04-.11,.06-.17-.13,.13-.24,.24-.34,.33-.09,.09-.18,.18-.28,.28s-.17,.18-.24,.25c-.58,.64-1.12,1.26-1.62,1.85-.51,.6-.98,1.19-1.43,1.79-.16,.21-.29,.38-.38,.49-.09,.12-.16,.21-.2,.27s-.08,.1-.1,.12c-.02,.02-.04,.04-.06,.05-.11,.05-.23,.05-.36,0-.13-.05-.19-.13-.19-.23,0-.11,.11-.34,.33-.7s.49-.74,.81-1.17c.19-.25,.39-.51,.59-.76s.43-.53,.7-.82,.57-.62,.9-.99c.34-.36,.74-.79,1.21-1.28,.27-.27,.49-.49,.65-.66,.16-.17,.29-.3,.38-.39,.09-.09,.16-.15,.2-.18s.08-.05,.11-.06Z"/><path class="cls-1" d="M88,33.96c-.01-.08-.05-.14-.11-.18-.05-.05-.09-.06-.15-.06-.03,0-.12,.02-.27,.05-.15,.05-.35,.09-.61,.15-.24,.08-.53,.15-.87,.24s-.68,.18-1.06,.29c-.03,0-.08,.02-.14,.03-.06,.02-.12,.03-.2,.06-.11,.03-.21,.06-.33,.09-.09,.02-.18,.05-.29,.06-.09,.03-.18,.05-.27,.08-.33,.09-.67,.17-1,.24s-.68,.12-1.03,.14c-.14,0-.27-.03-.41-.06-.14-.05-.24-.12-.32-.24-.03-.09-.06-.17-.06-.26,0-.08,.02-.17,.03-.26,0-.05,.02-.09,.05-.14,.03-.03,.09-.06,.18-.08,.55-.09,1.06-.27,1.58-.53,.09-.05,.17-.09,.24-.14,.08-.06,.14-.12,.17-.2,.09-.15,.09-.3,.02-.47-.08-.17-.18-.29-.33-.36-.12-.08-.26-.11-.41-.12-.14,0-.27,.02-.42,.06-.14,.03-.27,.09-.39,.17-.12,.08-.23,.17-.35,.26-.18,.17-.35,.36-.5,.56-.08,.11-.14,.21-.18,.33-.06,0-.15,.02-.23,.05-.09,.03-.18,.05-.27,.08-.21,.05-.41,.11-.64,.15-.21,.06-.41,.12-.64,.18-.53,.14-1.06,.29-1.59,.43-.52,.15-1.05,.3-1.59,.47-.32,.11-.67,.23-1,.35-.32,.12-.65,.24-.99,.36-.21,.08-.44,.15-.65,.23-.21,.08-.44,.14-.68,.2-.05,0-.09,.02-.12,.02-.03,.02-.08,.02-.14,.02-.03-.02-.08-.03-.14-.06-.06-.02-.08-.06-.08-.11v-.03c.06-.35,.14-.68,.26-1.02,.06-.18,.14-.33,.2-.5,.08-.15,.15-.32,.24-.47,.03-.11,.08-.21,.14-.3,.05-.08,.08-.14,.11-.21,.03-.06,.08-.12,.14-.17,.05-.06,.09-.09,.14-.14,.05-.03,.09-.08,.14-.11,.43-.3,.85-.61,1.28-.9,.42-.29,.82-.59,1.23-.91,.39-.33,.76-.68,1.09-1.05,.33-.38,.62-.79,.87-1.23,.05-.12,.09-.23,.14-.32,.03-.11,.06-.21,.06-.32,0-.12-.01-.23-.06-.33-.05-.12-.12-.2-.23-.26-.17-.11-.35-.12-.53-.06-.2,.08-.38,.15-.55,.26-.81,.52-1.5,1.14-2.11,1.85-.61,.73-1.14,1.49-1.58,2.31-.14,.21-.26,.44-.39,.64-.14,.21-.3,.38-.53,.53-.02,.02-.03,.03-.05,.03-.01,.02-.03,.02-.05,.03-.06,0-.11-.02-.14-.05-.03-.02-.08-.05-.11-.06-.14-.09-.27-.15-.44-.18-.15-.03-.32-.05-.46-.02-.17,.02-.32,.06-.47,.14-.14,.06-.27,.14-.41,.23-.15,.09-.29,.21-.42,.33-.06,0-.12,.02-.18,.03-.11,.03-.2,.05-.29,.08-.23,.06-.46,.12-.67,.18-.23,.08-.46,.12-.67,.18-.18,.03-.36,.08-.55,.14-.18,.05-.35,.09-.53,.15-.36,.09-.73,.15-1.09,.2-.36,.03-.73,.02-1.09-.08l-.26-.06,.08-.08c.15-.21,.23-.41,.24-.62,.02-.21-.03-.41-.15-.59-.09-.12-.2-.21-.35-.3-.15-.08-.27-.14-.39-.15-.06-.03-.14-.06-.2-.09-.12-.09-.26-.11-.41-.02-.09,.05-.21,.12-.33,.21-.12,.11-.26,.21-.38,.33-.14,.12-.26,.24-.38,.36-.12,.14-.23,.26-.32,.38-.18,.23-.32,.46-.44,.68-.12,.21-.17,.39-.17,.52,0,.15,.05,.3,.17,.43,.11,.12,.23,.21,.38,.23,.14,.03,.32,.02,.53-.05,.27-.09,.55-.2,.82-.32,.27-.14,.53-.29,.77-.47l.24-.17,.11,.05s.08,.03,.14,.05c.05,.02,.11,.03,.17,.06,.18,.06,.38,.11,.58,.14,.2,.03,.4,.05,.61,.08,.11,0,.21,.02,.3,.02,.09,.02,.18,0,.3-.02,.09-.03,.2-.05,.29-.08,.09-.02,.2-.05,.3-.06,.49-.15,.97-.29,1.46-.41,.3-.09,.59-.17,.9-.26-.06,.11-.08,.21-.09,.32-.02,.15,.03,.29,.15,.41,.08,.08,.17,.12,.27,.14,.11,.02,.21,.02,.32,0,.12-.03,.23-.06,.3-.11,.09-.05,.2-.09,.3-.15,.26-.15,.52-.3,.79-.46,.27-.15,.55-.32,.81-.47l-.18,.55c-.08,.27-.15,.55-.21,.84-.06,.27-.06,.56,.01,.84,.01,.14,.08,.24,.18,.32,.06,.03,.15,.06,.26,.09,.14,.02,.27,.02,.39,0,.14-.02,.27-.03,.4-.05,.35-.06,.7-.14,1.03-.26,.33-.11,.67-.23,.99-.33,.47-.15,.93-.32,1.38-.49,.46-.18,.91-.33,1.38-.47,.5-.17,1.03-.32,1.55-.44,.52-.14,1.05-.29,1.56-.44-.01,.17,0,.35,.05,.53,.08,.24,.21,.46,.41,.62,.18,.14,.39,.23,.64,.27,.24,.03,.47,.05,.7,.03,.36-.03,.71-.08,1.05-.17,.33-.09,.68-.2,1.02-.29,.06-.03,.12-.05,.18-.06l.18-.05c.29-.06,.56-.14,.83-.21,.27-.08,.53-.15,.76-.21,.24-.08,.44-.14,.59-.2,.17-.05,.27-.09,.33-.11,.12-.03,.21-.06,.3-.09s.18-.06,.26-.08c.18-.06,.27-.09,.3-.12s.03-.09-.02-.17Zm-6.48-.61c.06-.08,.15-.15,.27-.24,.12-.08,.23-.15,.3-.18,.12-.06,.26-.11,.39-.14,.14-.02,.21-.02,.23,.02,0,.05-.11,.12-.3,.23-.21,.11-.44,.21-.7,.3l-.29,.09,.09-.08Zm-6.55-3.37c.55-.64,1.09-1.15,1.62-1.52,.14-.12,.29-.21,.44-.29,.17-.09,.27-.12,.33-.12s.08,.03,.08,.09c0,.12-.06,.3-.18,.55-.12,.26-.29,.49-.47,.73-.08,.09-.17,.2-.29,.32-.12,.14-.24,.26-.39,.39-.15,.14-.3,.27-.46,.41-.15,.14-.3,.26-.46,.38s-.32,.26-.55,.41c-.21,.17-.41,.3-.59,.44-.18,.12-.35,.23-.47,.32-.05,.03-.09,.06-.12,.06,.46-.8,.97-1.53,1.5-2.17Zm-11.97,4.66c-.23,.15-.49,.3-.77,.44s-.56,.23-.82,.29c-.06,.02-.08,.02-.08-.03,0-.03,.05-.12,.14-.26,.21-.39,.53-.8,.94-1.21,.09-.09,.14-.15,.17-.15,.02-.02,.03-.02,.05,.02,.02,.06,.06,.15,.11,.26,.03,.05,.06,.11,.11,.18,.05,.06,.09,.12,.14,.18l.15,.18-.12,.11Zm.71-.74c-.06,.08-.12,.17-.18,.24-.08,.09-.12,.14-.15,.14s-.08-.06-.14-.17-.11-.2-.14-.29c-.06-.2-.05-.35,.05-.46,.09-.15,.23-.18,.41-.12,.06,.02,.12,.05,.18,.11,.03,.05,.05,.08,.05,.11,0,.02,.02,.06,.02,.14-.03,.11-.06,.21-.09,.3Zm7.5-.24c-.11,.06-.26,.17-.5,.32-.42,.26-.76,.46-1,.61-.24,.14-.38,.2-.39,.18-.01-.03,.03-.09,.12-.23,.09-.12,.2-.23,.27-.32,.17-.17,.33-.3,.52-.43,.2-.12,.38-.21,.55-.24,.09-.03,.2-.05,.32-.05,.12,.02,.2,.02,.24,.05,0,0-.05,.05-.12,.11Z"/></g></svg>